<?xml version="1.0" standalone="no"?>
<!DOCTYPE svg PUBLIC "-//W3C//DTD SVG 20010904//EN"
 "http://www.w3.org/TR/2001/REC-SVG-20010904/DTD/svg10.dtd">
<svg version="1.0" xmlns="http://www.w3.org/2000/svg"
 width="512.000000pt" height="512.000000pt" viewBox="0 0 512.000000 512.000000"
 preserveAspectRatio="xMidYMid meet">

<g transform="translate(0.000000,512.000000) scale(0.100000,-0.100000)"
fill="#000000" stroke="none">
<path d="M1748 3429 c-97 -23 -405 -207 -394 -235 7 -19 87 -124 94 -124 3 0
44 26 91 59 164 111 277 156 376 148 127 -10 240 -88 298 -206 28 -58 32 -75
32 -151 0 -73 -4 -93 -28 -143 -45 -90 -105 -141 -298 -252 -96 -55 -201 -114
-234 -130 -242 -123 -339 -216 -386 -366 -15 -48 -19 -92 -19 -205 l0 -144
520 0 520 0 0 80 0 80 -441 0 -440 0 6 58 c8 67 52 166 92 204 30 29 112 80
373 234 91 53 192 113 225 133 139 82 243 228 265 375 40 260 -138 519 -401
581 -69 16 -192 18 -251 4z"/>
<path d="M2825 2795 l-420 -605 -3 -95 -3 -95 441 0 440 0 0 -140 0 -140 80 0
80 0 0 140 0 140 100 0 100 0 0 80 0 80 -100 0 -100 0 0 620 0 620 -97 0 -98
-1 -420 -604z m452 -632 c-2 -2 -160 -2 -351 -1 l-346 3 347 499 348 499 3
-498 c1 -274 1 -500 -1 -502z"/>
</g>
</svg>
